<?xml version="1.0" encoding="UTF-8" standalone="no"?>
<!-- Created with Inkscape (http://www.inkscape.org/) -->

<svg
   width="166.41794mm"
   height="166.34415mm"
   viewBox="0 0 166.41794 166.34415"
   version="1.1"
   id="svg1"
   xml:space="preserve"
   xmlns:xlink="http://www.w3.org/1999/xlink"
   xmlns="http://www.w3.org/2000/svg"
   xmlns:svg="http://www.w3.org/2000/svg"><defs
     id="defs1"><linearGradient
       id="linearGradient2"><stop
         style="stop-color:#152db9;stop-opacity:1;"
         offset="0"
         id="stop3" /><stop
         style="stop-color:#3c9731;stop-opacity:1;"
         offset="0.59927797"
         id="stop5" /><stop
         style="stop-color:#04777a;stop-opacity:1;"
         offset="1"
         id="stop4" /></linearGradient><linearGradient
       id="swatch2"><stop
         style="stop-color:#280b0b;stop-opacity:1;"
         offset="0"
         id="stop2" /></linearGradient><linearGradient
       xlink:href="#linearGradient2"
       id="linearGradient4"
       x1="21.791027"
       y1="148.5"
       x2="188.20897"
       y2="148.5"
       gradientUnits="userSpaceOnUse"
       gradientTransform="matrix(1,0,0,1.0573983,0,-13.038431)" /></defs><g
     id="layer1"
     transform="translate(-21.791028,-60.813139)"><path
       style="fill:url(#linearGradient4);fill-opacity:1;stroke:none;stroke-width:1.0283"
       d="m 186.88605,209.77757 c -4.92902,-5.7e-4 -10.20314,-1.77248 -15.08125,-1.28293 -4.08807,0.41024 -8.39331,2.46354 -12.43541,3.40235 -8.21281,1.9075 -16.74649,2.97534 -25.13542,3.19211 -27.5776,0.71255 -57.664049,-12.8113 -73.289369,-37.48508 -5.47976,-8.65302 -9.26063,-18.85437 -9.26063,-29.37585 2.49833,2.86806 4.99227,5.34923 8.20209,7.3267 16.69038,10.28242 35.34462,0.86199 50.270829,-8.44578 -0.59339,2.29871 -0.89538,7.66041 -2.27611,9.39518 -0.79126,0.99415 -2.47657,1.30381 -3.54472,1.88219 -2.75965,1.49428 -5.949629,3.24328 -8.173499,5.56043 -1.46294,1.52429 -1.68369,4.14667 0.50181,5.1317 1.46545,0.66049 3.00019,-0.41405 4.232099,-1.14779 2.57296,-1.53245 5.35304,-3.1743 8.20209,-4.03551 0.21205,1.6638 2.67166,6.12682 1.90067,7.44369 -0.73688,1.25862 -3.57417,2.04315 -4.81109,2.69712 -3.7347,1.97453 -7.297209,4.24801 -10.583329,6.9841 -1.70166,1.41682 -4.35694,3.51258 -2.88674,6.0837 2.06628,3.61351 7.319019,-1.45906 9.501319,-2.7854 3.05064,-1.85409 6.18144,-3.48003 9.525,-4.66282 0.93097,-0.32934 2.39955,-1.19027 3.39365,-0.95244 0.83799,0.20048 1.41272,1.32869 1.92027,1.97825 1.42381,1.82221 3.53158,3.45471 4.47566,5.5954 -5.22562,1.59181 -11.0396,6.32175 -14.80523,10.3625 -1.52676,1.63828 -2.69755,5.94235 0.78232,6.03146 2.89912,0.0742 6.79665,-4.45942 9.26041,-5.96303 6.27434,-3.82915 13.5992,-7.02295 20.90208,-7.63324 -1.80781,-2.69124 -4.66532,-4.92197 -6.87896,-7.27401 -3.31394,-3.52113 -6.40589,-7.65345 -8.64979,-12.03011 -1.61048,-3.14121 -2.92466,-6.27958 -3.60964,-9.79195 -2.02065,-10.36116 3.55735,-19.2999 11.46548,-24.89931 8.78938,-6.22339 18.99895,-10.10593 28.575,-14.74167 3.50716,-1.69781 7.36768,-3.04554 10.58333,-5.33183 4.38878,-3.12038 10.07789,-8.83045 12.17083,-14.05865 -10.29515,2.57974 -20.62697,8.88091 -30.1625,13.6254 -12.92028,6.4286 -26.17641,12.06933 -39.15833,18.35473 -9.09717,4.40453 -18.145359,9.6847 -27.781249,12.66433 -11.68951,3.61467 -26.77142,0.92319 -30.94869,-13.03045 -0.63599,-2.12445 -0.92256,-4.48899 -0.77762,-6.71448 0.75131,-11.53604 11.65848,-19.37677 21.93673,-19.85265 8.13884,-0.37683 16.59097,1.8109 24.60625,-0.19409 6.841739,-1.71144 12.051479,-7.019209 19.049999,-8.317737 6.64886,-1.233645 13.29326,3.068807 20.10833,1.943276 3.13093,-0.517089 5.75845,-1.847349 8.20208,-3.966216 1.80556,-1.565595 3.27022,-3.668496 5.55625,-4.482159 4.58028,-1.630261 9.75865,1.061637 14.55209,-0.235509 4.57499,-1.238031 7.6615,-5.04952 11.64166,-7.455568 3.16828,-1.915257 6.70274,-2.264406 10.05417,-3.60139 -0.59593,-3.394072 -0.68924,-6.448028 -2.44841,-9.512178 -4.96663,-8.65096 -15.46857,-11.814099 -24.00992,-7.327329 -2.56036,1.344958 -4.68618,3.319211 -6.4921,5.648709 -1.00344,1.294364 -1.81578,3.282192 -3.30157,4.013924 -2.91583,1.435989 -6.90239,1.68878 -10.05008,2.365084 -6.26863,1.346871 -12.51238,2.813529 -18.78542,4.140438 -3.67585,0.77753 -8.63783,2.924078 -12.35988,2.602113 -1.4973,-0.12952 -3.0516,-2.564563 -4.04428,-3.609158 -2.2713,-2.3901 -4.88469,-4.479308 -8.202089,-4.731056 -3.05971,-0.232197 -6.51031,0.965875 -8.60835,3.380548 -1.65652,1.906513 -2.38071,4.461582 -4.8854,5.376299 -3.20894,1.171912 -5.00299,-1.325031 -7.67291,-2.657815 -2.95737,-1.476271 -6.39382,-1.732887 -9.525,-0.750157 -3.38111,1.061159 -6.23786,3.404745 -7.97037,6.655977 -0.90636,1.700869 -1.04987,5.073921 -2.88265,5.8702 -4.38415,1.904757 -9.91142,2.312014 -14.54698,3.362211 -2.62069,0.593719 -5.81096,1.435418 -7.38057,3.968374 -1.89366,3.055909 0.25081,7.064829 1.34885,10.020119 0.53396,1.43712 1.45756,3.2094 0.65594,4.72996 -2.43266,4.61444 -10.61719,2.00472 -12.07508,8.13946 -0.94863,3.99179 2.24421,7.42267 4.3205,10.35149 0.84176,1.18737 2.37606,2.85033 2.14382,4.47631 -0.26307,1.84189 -2.20115,2.88994 -3.56554,3.71537 -2.86345,1.73235 -6.24011,3.44915 -6.0746,7.47543 0.16642,4.04831 3.97802,6.18431 6.60376,8.51571 1.08028,0.95919 2.77128,2.16753 2.90021,3.79438 0.12333,1.55621 -1.16212,2.83836 -2.0348,3.91657 -2.19346,2.71005 -5.08952,5.28215 -3.87259,9.23241 1.13243,3.67596 5.56219,5.00321 8.56343,6.44161 1.47676,0.70778 3.60008,1.71994 3.88444,3.63031 0.74651,5.01524 -7.53093,9.10088 -2.47455,14.41789 1.64819,1.73314 3.9579,2.49982 5.99845,3.55563 3.18846,1.64974 6.25373,3.43503 9.26041,5.43781 31.04814,20.68141 66.668279,25.45026 102.129159,16.5632 8.59875,-2.155 16.92701,-4.88879 25.13542,-8.36072 2.50188,-1.05823 7.38413,-2.43153 8.99583,-4.75609 M 172.59855,70.731899 c -2.83241,-0.676679 -3.62702,-0.892398 -5.55625,1.67862 -2.85564,-5.760523 4.72076,-8.207126 5.55625,-1.67862 M 70.469391,86.775059 c 4.60806,-0.882853 6.01235,6.595668 1.32292,7.361246 -4.41692,0.721071 -5.77576,-6.508122 -1.32292,-7.361246 M 187.6798,86.678783 c -3.5007,0.322801 -8.66848,1.746632 -11.64166,3.744296 -2.69918,1.813553 -4.78298,4.445167 -7.67292,5.972093 -4.50439,2.379918 -9.20444,0.192288 -13.75833,1.854571 -4.58787,1.674675 -7.52803,6.426967 -12.17084,8.274577 -8.17362,3.25268 -15.60943,-1.6043 -23.81249,-0.46046 -6.81278,0.94998 -11.78661,7.00201 -18.25625,9.09403 -6.792099,2.19629 -13.327229,-0.329 -20.108339,-1.01416 -5.25497,-0.53097 -10.85901,0.67117 -15.08125,4.15337 -1.29865,1.07105 -4.22415,3.25462 -2.77036,5.2595 1.18957,1.64051 3.6283,2.07377 5.4162,1.50657 2.41129,-0.76498 4.3381,-2.54757 6.87916,-3.12928 4.74985,-1.08736 9.84784,0.53262 14.55209,1.23372 5.59106,0.83324 11.207099,0.56697 16.404159,-2.01603 4.51354,-2.24328 8.30214,-6.15271 13.22917,-7.40527 6.3132,-1.60497 13.33853,1.91766 19.84375,1.44398 3.71904,-0.27081 7.62277,-1.86846 10.58333,-4.23845 2.14825,-1.71972 4.09124,-4.30332 6.61458,-5.39376 3.26912,-1.41273 7.14319,0.0825 10.58334,-0.6405 4.9604,-1.04248 8.01525,-4.3995 11.90625,-7.463561 1.92567,-1.516415 4.69734,-1.24662 6.48269,-2.658659 1.68762,-1.334754 2.48612,-6.020983 2.77772,-8.116577 M 151.96105,201.10469 c -1.27684,-1.36453 -6.0987,-4.66834 -7.9375,-4.30427 -2.7522,0.54491 -6.09921,3.93652 -8.20208,5.77306 -1.81705,1.58692 -7.51061,5.8762 -4.43749,8.76137 1.79725,1.68733 4.04858,-0.44742 5.49582,-1.5927 4.69458,-3.71504 9.65103,-6.36476 15.08125,-8.63746 z"
       id="path5" /></g></svg>
